<?xml version="1.0" encoding="utf-8"?>
<!-- Generator: Adobe Illustrator 23.0.1, SVG Export Plug-In . SVG Version: 6.00 Build 0)  -->
<svg version="1.1" id="Calque_1" xmlns="http://www.w3.org/2000/svg" xmlns:xlink="http://www.w3.org/1999/xlink" x="0px" y="0px"
	 viewBox="0 0 172 267" style="enable-background:new 0 0 172 267;" xml:space="preserve">
<style type="text/css">
	.st0{fill:#FFECC2;}
	.st1{fill:#C9B99D;}
	.st2{fill:#13CE66;stroke:#000000;stroke-width:2;stroke-miterlimit:10;}
	.st3{fill:#CCCCCC;stroke:#000000;stroke-width:2;stroke-miterlimit:10;}
	.st4{fill:#F97762;}
	.st5{opacity:0.56;fill:#FFFFFF;}
	.st6{fill:#4EBFED;}
	.st7{fill:none;stroke:#000000;stroke-width:2;stroke-miterlimit:10;}
	.st8{fill:#61E9FF;stroke:#000000;stroke-width:2;stroke-miterlimit:10;}
	.st9{fill:none;stroke:#F97762;stroke-width:2;stroke-miterlimit:10;}
	.st10{font-family:'Lato-Black';}
	.st11{font-size:10.8px;}
</style>
<rect x="37.63" y="33.26" class="st0" width="91.73" height="221"/>
<polyline class="st1" points="37.4,31.78 37.4,53.02 129.13,53.02 129.13,33.28 "/>
<polygon class="st2" points="73.12,198.14 52.73,197.78 52.73,245.98 73.12,245.98 "/>
<g>
	<rect x="38.23" y="244.93" class="st3" width="51" height="9.37"/>
</g>
<polygon class="st4" points="126.12,15.05 39.12,15.05 23.77,43.17 141.46,43.17 "/>
<polygon class="st5" points="126.12,15.05 39.12,15.05 23.77,43.17 141.46,43.17 "/>
<rect x="92.48" y="63.86" class="st6" width="18" height="31.68"/>
<line class="st7" x1="55.29" y1="219.91" x2="59.86" y2="219.91"/>
<rect x="92.48" y="122.18" class="st8" width="18" height="31.85"/>
<line class="st7" x1="92.3" y1="129.56" x2="111.02" y2="129.56"/>
<line class="st7" x1="101.66" y1="121.64" x2="101.66" y2="154.76"/>
<g>
	<line class="st7" x1="96.98" y1="140.72" x2="96.98" y2="154.94"/>
	<line class="st7" x1="106.34" y1="140.72" x2="106.34" y2="154.94"/>
	<line class="st7" x1="114.62" y1="140.72" x2="114.62" y2="154.94"/>
	<line class="st7" x1="88.34" y1="140.72" x2="88.34" y2="154.94"/>
	<rect x="84.38" y="140.72" class="st7" width="34.92" height="16.56"/>
	<line class="st7" x1="84.02" y1="154.76" x2="118.94" y2="154.76"/>
</g>
<rect x="92.48" y="63.86" class="st8" width="18" height="31.85"/>
<line class="st7" x1="92.3" y1="71.24" x2="111.02" y2="71.24"/>
<line class="st7" x1="101.66" y1="63.32" x2="101.66" y2="96.44"/>
<g>
	<line class="st7" x1="96.98" y1="82.4" x2="96.98" y2="96.62"/>
	<line class="st7" x1="106.34" y1="82.4" x2="106.34" y2="96.62"/>
	<line class="st7" x1="114.62" y1="82.4" x2="114.62" y2="96.62"/>
	<line class="st7" x1="88.34" y1="82.4" x2="88.34" y2="96.62"/>
	<rect x="84.38" y="82.4" class="st7" width="34.92" height="16.56"/>
	<line class="st7" x1="84.02" y1="96.44" x2="118.94" y2="96.44"/>
</g>
<rect x="52.88" y="63.86" class="st6" width="18" height="31.68"/>
<rect x="52.88" y="122.18" class="st8" width="18" height="31.85"/>
<line class="st7" x1="52.7" y1="129.56" x2="71.42" y2="129.56"/>
<line class="st7" x1="62.06" y1="121.64" x2="62.06" y2="154.76"/>
<g>
	<line class="st7" x1="57.38" y1="140.72" x2="57.38" y2="154.94"/>
	<line class="st7" x1="66.74" y1="140.72" x2="66.74" y2="154.94"/>
	<line class="st7" x1="75.02" y1="140.72" x2="75.02" y2="154.94"/>
	<line class="st7" x1="48.74" y1="140.72" x2="48.74" y2="154.94"/>
	<rect x="44.78" y="140.72" class="st7" width="34.92" height="16.56"/>
	<line class="st7" x1="44.42" y1="154.76" x2="79.34" y2="154.76"/>
</g>
<g>
	<rect x="52.88" y="63.86" class="st8" width="18" height="31.85"/>
	<line class="st7" x1="52.7" y1="71.24" x2="71.42" y2="71.24"/>
	<line class="st7" x1="62.06" y1="63.32" x2="62.06" y2="96.44"/>
	<g>
		<line class="st7" x1="57.38" y1="82.4" x2="57.38" y2="96.62"/>
		<line class="st7" x1="66.74" y1="82.4" x2="66.74" y2="96.62"/>
		<line class="st7" x1="75.02" y1="82.4" x2="75.02" y2="96.62"/>
		<line class="st7" x1="48.74" y1="82.4" x2="48.74" y2="96.62"/>
		<rect x="44.78" y="82.4" class="st7" width="34.92" height="16.56"/>
		<line class="st7" x1="44.42" y1="96.44" x2="79.34" y2="96.44"/>
	</g>
</g>
<rect x="37.4" y="43.34" class="st5" width="91.8" height="212.04"/>
<rect x="90.32" y="181.94" class="st8" width="18" height="31.85"/>
<line class="st7" x1="90.14" y1="189.32" x2="108.86" y2="189.32"/>
<line class="st7" x1="99.5" y1="181.4" x2="99.5" y2="214.52"/>
<g>
	<line class="st9" x1="94.82" y1="200.48" x2="94.82" y2="214.7"/>
	<line class="st9" x1="104.18" y1="200.48" x2="104.18" y2="214.7"/>
	<line class="st9" x1="112.46" y1="200.48" x2="112.46" y2="214.7"/>
	<line class="st9" x1="86.18" y1="200.48" x2="86.18" y2="214.7"/>
	<rect x="82.22" y="200.48" class="st9" width="34.92" height="16.56"/>
	<line class="st9" x1="81.86" y1="214.52" x2="116.78" y2="214.52"/>
</g>
<g>
	<g>
		<line class="st9" x1="125.78" y1="201.64" x2="125.78" y2="252.42"/>
		<g>
			<polygon class="st4" points="120.05,206.27 121.08,207.23 125.77,202.17 130.47,207.23 131.5,206.27 125.77,200.12 			"/>
		</g>
		<g>
			<polygon class="st4" points="120.05,247.78 121.08,246.82 125.77,251.88 130.47,246.82 131.5,247.78 125.77,253.94 			"/>
		</g>
	</g>
</g>
<text transform="matrix(1 0 0 1 131.4961 224.6035)" class="st4 st10 st11">80 cm</text>
</svg>
